<svg xmlns="http://www.w3.org/2000/svg" xmlns:xlink="http://www.w3.org/1999/xlink" version="1.1" x="0px" y="0px" viewBox="0 0 95 95" style="enable-background:new 0 0 95 95;" xml:space="preserve"><path d="M94.35,21.9L73.11,0.65c-0.87-0.87-2.28-0.87-3.15,0L0.9,69.7c-0.41,0.41-0.65,0.97-0.65,1.55L0,92.75  c-0.01,0.6,0.23,1.18,0.65,1.6C1.07,94.77,1.63,95,2.22,95c0.01,0,0.02,0,0.03,0l21.5-0.25c0.58-0.01,1.14-0.24,1.55-0.65  l69.06-69.05c0.42-0.42,0.65-0.98,0.65-1.57C95,22.88,94.77,22.32,94.35,21.9z M22.79,90.31L4.48,90.52l0.21-18.31l52.67-52.66  l18.1,18.1L22.79,90.31z M78.6,34.5L60.5,16.4L71.53,5.38l18.1,18.1L78.6,34.5z"/></svg>